<svg xmlns="http://www.w3.org/2000/svg" xmlns:xlink="http://www.w3.org/1999/xlink" version="1.1" x="0px" y="0px" viewBox="0 0 64 80" style="enable-background:new 0 0 64 64;" xml:space="preserve"><style type="text/css">
	.st0{display:none;}
	.st1{display:inline;}
	.st2{fill:none;stroke:#B3B3B3;stroke-width:0.1;stroke-miterlimit:10;}
</style><g class="st0"><g class="st1"><rect x="2" y="2" class="st2" width="60" height="60"/><line class="st2" x1="32" y1="2" x2="32" y2="62"/><line class="st2" x1="62" y1="32" x2="2" y2="32"/><line class="st2" x1="2" y1="2" x2="62" y2="62"/><rect x="10" y="10" class="st2" width="44" height="44"/><line class="st2" x1="62" y1="2" x2="2" y2="62"/><line class="st2" x1="2" y1="32" x2="32" y2="2"/><line class="st2" x1="32" y1="2" x2="62" y2="32"/><line class="st2" x1="62" y1="32" x2="32" y2="62"/><line class="st2" x1="32" y1="62" x2="2" y2="32"/><circle class="st2" cx="32" cy="32" r="21"/></g></g><path d="M49.1,40.9c-1.1-1.2-3-1.2-4.2,0l-3-3c2.5-3.5,3.9-7.6,3.9-11.9c0-1.8-0.3-3.5-0.7-5.1L57.7,7.7C58.1,7.9,58.5,8,59,8  c1.7,0,3-1.3,3-3s-1.3-3-3-3s-3,1.3-3,3c0,0.5,0.1,0.9,0.3,1.3L44.4,18.7C41.5,11.3,34.2,6,25.8,6c-11,0-20,9-20,20  c0,4.5,1.5,8.6,4,11.9l-4,5.2C5.6,43.1,5.3,43,5,43c-1.7,0-3,1.3-3,3s1.3,3,3,3s3-1.3,3-3c0-0.6-0.2-1.2-0.5-1.7l3.6-4.8  c3.7,4,8.9,6.5,14.7,6.5c4.2,0,8.4-1.4,11.8-3.9l3.1,3.1c-1.1,1.1-1.1,3,0,4.1l12,12c0.6,0.6,1.3,0.9,2.1,0.9c0.7,0,1.5-0.3,2.1-0.9  l4.2-4.2c1.2-1.1,1.2-3,0-4.2L49.1,40.9z M59,4c0.6,0,1,0.4,1,1s-0.4,1-1,1s-1-0.4-1-1S58.4,4,59,4z M5,47c-0.6,0-1-0.4-1-1  s0.4-1,1-1s1,0.4,1,1S5.6,47,5,47z M37.1,40c-3.2,2.6-7.1,4-11.3,4c-9.9,0-18-8.1-18-18s8.1-18,18-18c7.9,0,14.7,5.2,17.1,12.3  L41.3,22c-1.8-6.9-8.1-12-15.5-12c-8.8,0-16,7.2-16,16s7.2,16,16,16s16-7.2,16-16c0-0.5,0-1.1-0.1-1.6l1.7-1.8  c0.2,1.1,0.3,2.3,0.3,3.4c0,4.2-1.4,8.1-4,11.3L39.2,38l4.3,4.3l-1.4,1.4l-4.3-4.3L37.1,40z M23,23c-0.6,0-1-0.4-1-1s0.4-1,1-1  s1,0.4,1,1S23.6,23,23,23z M22.1,24.9c0.3,0.1,0.6,0.1,0.9,0.1c0.5,0,0.9-0.1,1.3-0.3l6,6C30.1,31.1,30,31.5,30,32c0,1.7,1.3,3,3,3  s3-1.3,3-3c0-0.5-0.1-0.9-0.3-1.3l4.1-4.3c-0.2,7.5-6.4,13.6-14,13.6c-4.5,0-8.4-2.1-11-5.4L22.1,24.9z M34,32c0,0.6-0.4,1-1,1  s-1-0.4-1-1s0.4-1,1-1S34,31.4,34,32z M34.3,29.3C33.9,29.1,33.5,29,33,29c-0.5,0-0.9,0.1-1.3,0.3l-6-6c0.2-0.4,0.3-0.8,0.3-1.3  c0-1.7-1.3-3-3-3s-3,1.3-3,3c0,0.6,0.2,1.2,0.5,1.7l-6.9,9.1c-1.1-2-1.8-4.4-1.8-6.9c0-7.7,6.3-14,14-14c6.9,0,12.7,5.1,13.8,11.7  L34.3,29.3z M59.6,55.7l-4.2,4.2c-0.4,0.4-1,0.4-1.4,0l-12-12c-0.4-0.4-0.4-1,0-1.4l4.3-4.2c0.2-0.2,0.4-0.3,0.7-0.3  c0.2,0,0.5,0.1,0.6,0.3l12,12C60,54.7,60,55.3,59.6,55.7z"/></svg>
